<svg xmlns="http://www.w3.org/2000/svg"  viewBox="0 0 64 64" width="96px" height="96px"><linearGradient id="ZfeDil-VRLT-Ig0O46S38a" x1="22" x2="22" y1="4" y2="12" gradientUnits="userSpaceOnUse"><stop offset="0" stop-color="#6dc7ff"/><stop offset="1" stop-color="#e6abff"/></linearGradient><circle cx="22" cy="8" r="4" fill="url(#ZfeDil-VRLT-Ig0O46S38a)"/><linearGradient id="ZfeDil-VRLT-Ig0O46S38b" x1="16" x2="16" y1="32" y2="40" gradientUnits="userSpaceOnUse"><stop offset="0" stop-color="#6dc7ff"/><stop offset="1" stop-color="#e6abff"/></linearGradient><circle cx="16" cy="36" r="4" fill="url(#ZfeDil-VRLT-Ig0O46S38b)"/><linearGradient id="ZfeDil-VRLT-Ig0O46S38c" x1="56" x2="56" y1="22" y2="32" gradientUnits="userSpaceOnUse"><stop offset="0" stop-color="#6dc7ff"/><stop offset="1" stop-color="#e6abff"/></linearGradient><circle cx="56" cy="27" r="5" fill="url(#ZfeDil-VRLT-Ig0O46S38c)"/><linearGradient id="ZfeDil-VRLT-Ig0O46S38d" x1="43" x2="43" y1="5" y2="11" gradientUnits="userSpaceOnUse"><stop offset="0" stop-color="#6dc7ff"/><stop offset="1" stop-color="#e6abff"/></linearGradient><circle cx="43" cy="8" r="3" fill="url(#ZfeDil-VRLT-Ig0O46S38d)"/><linearGradient id="ZfeDil-VRLT-Ig0O46S38e" x1="34" x2="34" y1="21" y2="27" gradientUnits="userSpaceOnUse"><stop offset="0" stop-color="#6dc7ff"/><stop offset="1" stop-color="#e6abff"/></linearGradient><circle cx="34" cy="24" r="3" fill="url(#ZfeDil-VRLT-Ig0O46S38e)"/><linearGradient id="ZfeDil-VRLT-Ig0O46S38f" x1="47" x2="47" y1="52" y2="58" gradientUnits="userSpaceOnUse"><stop offset="0" stop-color="#6dc7ff"/><stop offset="1" stop-color="#e6abff"/></linearGradient><circle cx="47" cy="55" r="3" fill="url(#ZfeDil-VRLT-Ig0O46S38f)"/><linearGradient id="ZfeDil-VRLT-Ig0O46S38g" x1="47" x2="47" y1="37" y2="45" gradientUnits="userSpaceOnUse"><stop offset="0" stop-color="#6dc7ff"/><stop offset="1" stop-color="#e6abff"/></linearGradient><circle cx="47" cy="41" r="4" fill="url(#ZfeDil-VRLT-Ig0O46S38g)"/><linearGradient id="ZfeDil-VRLT-Ig0O46S38h" x1="35" x2="35" y1="52" y2="58" gradientUnits="userSpaceOnUse"><stop offset="0" stop-color="#6dc7ff"/><stop offset="1" stop-color="#e6abff"/></linearGradient><circle cx="35" cy="55" r="3" fill="url(#ZfeDil-VRLT-Ig0O46S38h)"/><linearGradient id="ZfeDil-VRLT-Ig0O46S38i" x1="8.5" x2="8.5" y1="19" y2="26" gradientUnits="userSpaceOnUse"><stop offset="0" stop-color="#6dc7ff"/><stop offset="1" stop-color="#e6abff"/></linearGradient><circle cx="8.5" cy="22.5" r="3.5" fill="url(#ZfeDil-VRLT-Ig0O46S38i)"/><linearGradient id="ZfeDil-VRLT-Ig0O46S38j" x1="35" x2="35" y1="39" y2="45" gradientUnits="userSpaceOnUse"><stop offset="0" stop-color="#6dc7ff"/><stop offset="1" stop-color="#e6abff"/></linearGradient><circle cx="35" cy="42" r="3" fill="url(#ZfeDil-VRLT-Ig0O46S38j)"/><linearGradient id="ZfeDil-VRLT-Ig0O46S38k" x1="33" x2="33" y1="3" y2="59" gradientUnits="userSpaceOnUse"><stop offset="0" stop-color="#1a6dff"/><stop offset="1" stop-color="#c822ff"/></linearGradient><path fill="url(#ZfeDil-VRLT-Ig0O46S38k)" d="M62,27c0-2.967-2.167-5.431-5-5.91v-9.101C57,9.238,54.762,7,52.011,7h-5.153	C46.411,5.28,44.859,4,43,4s-3.411,1.28-3.858,3H26.899C26.434,4.721,24.414,3,22,3s-4.434,1.721-4.899,4h-5.112	C9.238,7,7,9.238,7,11.989v6.287c-1.742,0.621-3,2.271-3,4.224s1.258,3.602,3,4.224v5.287c0,2.444,1.769,4.474,4.092,4.898	C11.522,39.232,13.555,41,16,41c2.414,0,4.434-1.721,4.899-4H23c1.103,0,2,0.897,2,2c0,2.206,1.794,4,4,4h2.142	c0.364,1.399,1.459,2.495,2.858,2.858v5.284c-1.721,0.447-3,1.999-3,3.858c0,2.206,1.794,4,4,4s4-1.794,4-4	c0-1.859-1.279-3.411-3-3.858v-5.284c1.399-0.364,2.495-1.459,2.858-2.858h3.566c0.644,1.468,1.969,2.571,3.576,2.899v5.243	c-1.721,0.447-3,1.999-3,3.858c0,2.206,1.794,4,4,4s4-1.794,4-4c0-1.859-1.279-3.411-3-3.858v-5.243	c1.607-0.328,2.932-1.431,3.576-2.899h0.435C54.762,43,57,40.762,57,38.011V32.91C59.833,32.431,62,29.967,62,27z M55,11.989v9.101	c-0.556,0.094-1.084,0.264-1.577,0.5l-7.291-11.132C46.467,10.032,46.717,9.54,46.858,9h5.153C53.659,9,55,10.341,55,11.989z M50.116,25.835l-12.156-2.236c-0.081-0.798-0.391-1.521-0.872-2.111l4.438-9.778C41.983,11.893,42.478,12,43,12	c0.548,0,1.07-0.112,1.546-0.312l7.237,11.049C50.946,23.566,50.352,24.637,50.116,25.835z M12.954,22.047	c-0.081-0.796-0.355-1.531-0.797-2.15l7.261-7.637C20.174,12.72,21.052,13,22,13c0.711,0,1.385-0.154,1.998-0.423l6.619,9.312	c-0.205,0.327-0.357,0.687-0.461,1.068L12.954,22.047z M39.907,10.505l-4.44,9.782C35.012,20.107,34.519,20,34,20	c-0.701,0-1.35,0.197-1.923,0.514l-6.445-9.1C26.256,10.751,26.71,9.926,26.899,9h12.243C39.288,9.561,39.552,10.068,39.907,10.505z M34,22c1.103,0,2,0.897,2,2s-0.897,2-2,2s-2-0.897-2-2S32.897,22,34,22z M43,6c1.103,0,2,0.897,2,2s-0.897,2-2,2s-2-0.897-2-2	S41.897,6,43,6z M22,5c1.654,0,3,1.346,3,3s-1.346,3-3,3s-3-1.346-3-3S20.346,5,22,5z M11.989,9h5.112	c0.143,0.702,0.442,1.343,0.846,1.905l-7.292,7.67C10.153,18.297,9.596,18.118,9,18.051v-6.061C9,10.341,10.341,9,11.989,9z M6,22.5	C6,21.122,7.121,20,8.5,20s2.5,1.122,2.5,2.5S9.879,25,8.5,25S6,23.878,6,22.5z M11.142,34.863C9.908,34.495,9,33.363,9,32.011	v-5.061c1.717-0.193,3.137-1.342,3.712-2.913l17.417,0.921c0.041,0.167,0.09,0.331,0.152,0.489L19.49,32.43	C18.588,31.548,17.358,31,16,31C13.636,31,11.66,32.654,11.142,34.863z M16,39c-1.654,0-3-1.346-3-3s1.346-3,3-3s3,1.346,3,3	S17.654,39,16,39z M37,55c0,1.103-0.897,2-2,2s-2-0.897-2-2s0.897-2,2-2S37,53.897,37,55z M35,44c-1.103,0-2-0.897-2-2s0.897-2,2-2	s2,0.897,2,2S36.103,44,35,44z M38.858,41c-0.447-1.721-1.999-3-3.858-3s-3.411,1.279-3.858,3H29c-1.103,0-2-0.897-2-2	c0-2.206-1.794-4-4-4h-2.101c-0.064-0.316-0.161-0.621-0.283-0.912l10.85-7.018C32.158,27.642,33.034,28,34,28	c0.445,0,0.865-0.09,1.264-0.224l8.021,9.909C42.495,38.569,42,39.723,42,41H38.858z M49,55c0,1.103-0.897,2-2,2s-2-0.897-2-2	s0.897-2,2-2S49,53.897,49,55z M47,44c-1.654,0-3-1.346-3-3s1.346-3,3-3s3,1.346,3,3S48.654,44,47,44z M52.011,41H52	c0-2.757-2.243-5-5-5c-0.755,0-1.464,0.181-2.106,0.481l-7.935-9.814c0.291-0.322,0.538-0.684,0.713-1.088l12.396,2.277	c0.37,2.575,2.377,4.622,4.932,5.054v5.101C55,39.659,53.659,41,52.011,41z M56,31c-2.206,0-4-1.794-4-4s1.794-4,4-4s4,1.794,4,4	S58.206,31,56,31z"/></svg>