<svg xmlns="http://www.w3.org/2000/svg" xmlns:xlink="http://www.w3.org/1999/xlink" viewBox="0,0,256,256" width="50px" height="50px" fill-rule="nonzero"><g fill="#339af0" fill-rule="nonzero" stroke="none" stroke-width="1" stroke-linecap="butt" stroke-linejoin="miter" stroke-miterlimit="10" stroke-dasharray="" stroke-dashoffset="0" font-family="none" font-weight="none" font-size="none" text-anchor="none" style="mix-blend-mode: normal"><g transform="scale(5.12,5.12)"><path d="M36,0.01172c-0.31363,0 -0.62772,0.17298 -0.76172,0.52148l-1.13867,2.95703c-0.107,0.279 -0.32842,0.49942 -0.60742,0.60742l-2.95703,1.14063c-0.697,0.268 -0.697,1.25444 0,1.52344l2.95703,1.13867c0.279,0.107 0.49942,0.32842 0.60742,0.60742l1.13867,2.95703c0.268,0.697 1.25444,0.697 1.52344,0l1.14063,-2.95703c0.107,-0.279 0.32842,-0.49942 0.60742,-0.60742l2.95703,-1.13867c0.697,-0.268 0.697,-1.25444 0,-1.52344l-2.95703,-1.14062c-0.279,-0.107 -0.49942,-0.32842 -0.60742,-0.60742l-1.14062,-2.95703c-0.1345,-0.3485 -0.44809,-0.52148 -0.76172,-0.52148zM12.98438,5.98633c-0.55152,0.00862 -0.99193,0.46214 -0.98437,1.01367v36c-0.0051,0.36064 0.18438,0.69608 0.49587,0.87789c0.3115,0.18181 0.69676,0.18181 1.00825,0c0.3115,-0.18181 0.50097,-0.51725 0.49587,-0.87789v-36c0.0037,-0.2703 -0.10218,-0.53059 -0.29351,-0.72155c-0.19133,-0.19097 -0.45182,-0.29634 -0.72212,-0.29212zM46,9.01172c-0.24038,0 -0.48031,0.13806 -0.57031,0.41406l-0.57227,1.75391c-0.105,0.322 -0.35573,0.57273 -0.67773,0.67773l-1.75391,0.57227c-0.552,0.18 -0.552,0.96063 0,1.14062l1.75391,0.57031c0.322,0.105 0.57273,0.35769 0.67773,0.67969l0.57227,1.75391c0.18,0.552 0.96063,0.552 1.14062,0l0.57031,-1.75391c0.105,-0.322 0.35769,-0.57469 0.67969,-0.67969l1.75391,-0.57031c0.552,-0.18 0.552,-0.96063 0,-1.14062l-1.75391,-0.57227c-0.322,-0.105 -0.57469,-0.35573 -0.67969,-0.67773l-0.57031,-1.75391c-0.0895,-0.276 -0.32994,-0.41406 -0.57031,-0.41406zM6.98438,14.98633c-0.55152,0.00862 -0.99193,0.46214 -0.98437,1.01367v18c-0.0051,0.36064 0.18438,0.69608 0.49587,0.87789c0.3115,0.18181 0.69676,0.18181 1.00825,0c0.3115,-0.18181 0.50097,-0.51725 0.49587,-0.87789v-18c0.0037,-0.2703 -0.10218,-0.53059 -0.29351,-0.72155c-0.19133,-0.19097 -0.45182,-0.29634 -0.72212,-0.29212zM18.98438,15.98633c-0.55152,0.00862 -0.99193,0.46214 -0.98437,1.01367v16c-0.0051,0.36064 0.18438,0.69608 0.49587,0.87789c0.3115,0.18181 0.69676,0.18181 1.00825,0c0.3115,-0.18181 0.50097,-0.51725 0.49587,-0.87789v-16c0.0037,-0.2703 -0.10218,-0.53059 -0.29351,-0.72155c-0.19133,-0.19097 -0.45182,-0.29634 -0.72212,-0.29212zM30.98438,15.98633c-0.55152,0.00862 -0.99193,0.46214 -0.98437,1.01367v16c-0.0051,0.36064 0.18438,0.69608 0.49587,0.87789c0.3115,0.18181 0.69676,0.18181 1.00825,0c0.3115,-0.18181 0.50097,-0.51725 0.49587,-0.87789v-16c0.0037,-0.2703 -0.10218,-0.53059 -0.29351,-0.72155c-0.19133,-0.19097 -0.45182,-0.29634 -0.72212,-0.29212zM36.98438,17.98633c-0.55152,0.00862 -0.99193,0.46214 -0.98437,1.01367v24c-0.0051,0.36064 0.18438,0.69608 0.49587,0.87789c0.3115,0.18181 0.69676,0.18181 1.00825,0c0.3115,-0.18181 0.50097,-0.51725 0.49587,-0.87789v-24c0.0037,-0.2703 -0.10218,-0.53059 -0.29351,-0.72155c-0.19133,-0.19097 -0.45182,-0.29634 -0.72212,-0.29212zM0.98438,20.98633c-0.55152,0.00862 -0.99193,0.46214 -0.98437,1.01367v6c-0.0051,0.36064 0.18438,0.69608 0.49587,0.87789c0.3115,0.18181 0.69676,0.18181 1.00825,0c0.3115,-0.18181 0.50097,-0.51725 0.49587,-0.87789v-6c0.0037,-0.2703 -0.10218,-0.53059 -0.29351,-0.72155c-0.19133,-0.19097 -0.45182,-0.29634 -0.72212,-0.29212zM24.98438,20.98633c-0.55152,0.00862 -0.99193,0.46214 -0.98437,1.01367v6c-0.0051,0.36064 0.18438,0.69608 0.49587,0.87789c0.3115,0.18181 0.69676,0.18181 1.00825,0c0.3115,-0.18181 0.50097,-0.51725 0.49587,-0.87789v-6c0.0037,-0.2703 -0.10218,-0.53059 -0.29351,-0.72155c-0.19133,-0.19097 -0.45182,-0.29634 -0.72212,-0.29212zM48.98438,20.98633c-0.55152,0.00862 -0.99193,0.46214 -0.98437,1.01367v6c-0.0051,0.36064 0.18438,0.69608 0.49587,0.87789c0.3115,0.18181 0.69676,0.18181 1.00825,0c0.3115,-0.18181 0.50097,-0.51725 0.49587,-0.87789v-6c0.0037,-0.2703 -0.10218,-0.53059 -0.29351,-0.72155c-0.19133,-0.19097 -0.45182,-0.29634 -0.72212,-0.29212zM42.98438,22.98633c-0.55152,0.00862 -0.99193,0.46214 -0.98437,1.01367v10c-0.0051,0.36064 0.18438,0.69608 0.49587,0.87789c0.3115,0.18181 0.69676,0.18181 1.00825,0c0.3115,-0.18181 0.50097,-0.51725 0.49587,-0.87789v-10c0.0037,-0.2703 -0.10218,-0.53059 -0.29351,-0.72155c-0.19133,-0.19097 -0.45182,-0.29634 -0.72212,-0.29212z"></path></g></g></svg>