<svg xmlns="http://www.w3.org/2000/svg"  viewBox="0 0 48 48" width="96px" height="96px"><linearGradient id="SVGID_1_" x1="38.093" x2="9.906" y1="9.906" y2="38.093" gradientUnits="userSpaceOnUse"><stop offset="0" stop-color="#60e8fe"/><stop offset=".033" stop-color="#6ae9fe"/><stop offset=".197" stop-color="#97f0fe"/><stop offset=".362" stop-color="#bdf5ff"/><stop offset=".525" stop-color="#dafaff"/><stop offset=".687" stop-color="#eefdff"/><stop offset=".846" stop-color="#fbfeff"/><stop offset="1" stop-color="#fff"/></linearGradient><path fill="url(#SVGID_1_)" d="M5,31.461V16.539C5,14.308,6.73,12.5,8.863,12.5h30.274C41.27,12.5,43,14.308,43,16.539v14.922	c0,2.231-1.73,4.039-3.863,4.039H8.863C6.73,35.5,5,33.692,5,31.461z"/><path fill="none" stroke="#10cfe3" stroke-linecap="round" stroke-linejoin="round" stroke-miterlimit="10" stroke-width="3" d="M33.638,12.5H39.5c2.209,0,4,1.791,4,4v15c0,2.209-1.791,4-4,4H17.043"/><path fill="none" stroke="#10cfe3" stroke-linecap="round" stroke-linejoin="round" stroke-miterlimit="10" stroke-width="3" d="M10.681,35.5H8.5c-2.209,0-4-1.791-4-4v-15c0-2.209,1.791-4,4-4h18.926"/><circle cx="30.5" cy="22.5" r="5" fill="none" stroke="#10cfe3" stroke-linecap="round" stroke-miterlimit="10" stroke-width="3"/><line x1="38.5" x2="34.5" y1="30.5" y2="26.5" fill="none" stroke="#10cfe3" stroke-linecap="round" stroke-miterlimit="10" stroke-width="3"/></svg>